<?xml version="1.0" encoding="utf-8"?>
<!-- Generator: Adobe Illustrator 25.2.3, SVG Export Plug-In . SVG Version: 6.00 Build 0)  -->
<svg version="1.1" id="Layer_1" xmlns="http://www.w3.org/2000/svg" xmlns:xlink="http://www.w3.org/1999/xlink" x="0px" y="0px"
	 viewBox="0 0 500 500" style="enable-background:new 0 0 500 500;" xml:space="preserve">
<style type="text/css">
	.st0{fill:#333333;}
	.st1{fill:#F6F6F6;}
</style>
<path class="st1" d="M425.2,227.6l74.8-75.1v308.6c0,0.5,0,1,0,1.4c-0.7,21.4-18.7,38.2-40.1,37.5c-10.2-0.3-19.8-4.7-26.8-12.1
	l-0.5-0.5l-39.9-42.2L250,302.5L127.3,425.2h146.5L349,500H38.8C17.4,500,0,482.6,0,461.1c0-10.5,4.3-20.6,11.8-27.9h0.1l0.8-0.8
	l37.5-35.2L197.4,250L74.8,127.4v146.4l0,0L0,349v-75.1H0v-233c0-0.7,0-1.3,0-2C0,17.4,17.4,0,38.9,0c11.5,0,22.5,5.1,29.9,14l0,0
	L123,70.4l127,127L372.6,74.7H226.1L151,0h310.1c21.4,0,38.8,17.4,38.9,38.8c0,11.3-4.9,22.1-13.5,29.5l0,0l-57.4,55.2L302.5,250
	l122.7,122.6V227.6z"/>
</svg>
