<svg id="Layer_1" data-name="Layer 1" xmlns="http://www.w3.org/2000/svg" viewBox="0 0 1000 300"><defs><style>.cls-1,.cls-2{fill:#333;}.cls-2{font-size:199.53px;font-family:AquireBold, Aquire;}</style></defs><path class="cls-1" d="M219.8,138.68l37.78-37.93V256.67c0,.24,0,.49,0,.73a19.62,19.62,0,0,1-33.81,12.81l-.23-.25-20.16-21.33-72.08-72.08-62,62h74l37.94,37.78H24.62A19.61,19.61,0,0,1,11,242.57l0,0,.42-.38,19-17.79L104.74,150,42.81,88.07v74h0L5,200V162.05H5V44.34c0-.33,0-.67,0-1A19.61,19.61,0,0,1,39.71,30.79h0L67.13,59.29l64.16,64.16,62-62h-74L81.31,23.71H238A19.61,19.61,0,0,1,250.77,58.2h0l-29,27.87L157.84,150l62,62Z"/><text class="cls-2" transform="translate(276.9 232.75)">NEZHA</text></svg>